<?xml version="1.0" encoding="iso-8859-1"?>
<!-- Generator: Adobe Illustrator 18.1.1, SVG Export Plug-In . SVG Version: 6.00 Build 0)  -->
<svg version="1.1" id="Capa_1" xmlns="http://www.w3.org/2000/svg" xmlns:xlink="http://www.w3.org/1999/xlink" x="0px" y="0px"
	 viewBox="0 0 564.264 564.264" style="enable-background:new 0 0 564.264 564.264;" xml:space="preserve">
<g>
	<g>
		<path style="fill:#010002;" d="M282.132,564.264c-38.76,0-75.276-7.446-109.548-22.338s-64.158-35.088-89.658-60.588
			S37.23,425.952,22.338,391.68S0,320.892,0,282.132s7.446-75.276,22.338-109.548s35.088-64.158,60.588-89.658
			s55.386-45.696,89.658-60.588S243.372,0,282.132,0s75.276,7.446,109.548,22.338s64.158,35.088,89.658,60.588
			c25.5,25.5,45.696,55.386,60.588,89.658s22.338,70.788,22.338,109.548s-7.446,75.276-22.338,109.548s-35.088,64.158-60.588,89.658
			s-55.386,45.696-89.658,60.588C357.408,556.817,320.892,564.264,282.132,564.264z M520.2,320.688
			c-2.04-0.405-7.551-1.836-16.524-4.281c-8.976-2.448-20.196-4.593-33.66-6.429s-28.866-2.958-46.206-3.363
			c-17.34-0.408-35.394,0.813-54.162,3.672c7.752,21.624,14.484,42.126,20.196,61.506s10.506,36.618,14.382,51.714
			s6.732,27.744,8.568,37.944c1.836,10.197,3.162,17.136,3.978,20.808c26.931-18.36,49.473-41.412,67.626-69.156
			C502.554,385.355,514.488,354.552,520.2,320.688z M376.38,504.288c-0.816-5.307-2.448-13.668-4.896-25.092
			c-2.445-11.427-5.712-25.194-9.792-41.313c-4.077-16.116-9.075-34.068-14.991-53.854c-5.916-19.788-13.158-40.698-21.729-62.73
			c-0.408,0.408-1.02,0.612-1.836,0.612c-33.864,11.832-62.628,26.01-86.292,42.534c-23.664,16.521-42.942,32.436-57.834,47.733
			s-25.806,28.662-32.742,40.086s-11.016,18.156-12.24,20.196c20.808,15.912,43.656,28.354,68.544,37.332
			c24.888,8.976,51.408,13.464,79.56,13.464C315.18,523.26,346.596,516.936,376.38,504.288z M102.816,443.7
			c1.224-2.448,6.324-10.2,15.3-23.258c8.976-13.057,21.726-27.946,38.25-44.677c16.524-16.728,36.618-33.558,60.282-50.488
			c23.664-16.934,51.204-30.497,82.62-40.697c1.632-0.816,3.162-1.326,4.59-1.53c1.431-0.204,2.958-0.714,4.593-1.53
			c-3.267-6.936-6.528-13.668-9.792-20.196c-3.267-6.528-6.528-13.26-9.792-20.196c-30.192,8.976-59.568,15.81-88.128,20.502
			s-54.162,8.058-76.806,10.098c-22.644,2.04-41.412,3.162-56.304,3.366S43.862,275.4,41.006,275.4v7.344
			c0,31.008,5.508,60.18,16.524,87.516S83.64,422.076,102.816,443.7z M46.512,233.172c2.448,0,10.2-0.102,23.256-0.306
			s29.58-1.224,49.572-3.06s42.942-4.794,68.85-8.874s52.938-9.792,81.09-17.136c-10.2-17.544-20.298-34.272-30.294-50.184
			s-19.074-30.09-27.234-42.534c-8.16-12.444-15.096-22.746-20.808-30.906s-9.384-13.464-11.016-15.912
			c-34.272,15.912-63.138,38.658-86.598,68.238S54.264,195.636,46.512,233.172z M225.828,48.348c1.632,2.04,5.406,7.14,11.322,15.3
			s13.056,18.564,21.42,31.212c8.364,12.648,17.544,27.03,27.541,43.146c9.995,16.116,19.892,33.15,29.684,51.102
			c21.216-7.752,39.576-16.422,55.08-26.01s28.354-18.666,38.556-27.234s17.853-15.912,22.95-22.032
			c5.1-6.12,8.262-9.996,9.486-11.628c-21.624-19.176-46.002-34.068-73.137-44.676c-27.132-10.608-55.998-15.912-86.598-15.912
			C263.364,41.616,244.596,43.86,225.828,48.348z M468.792,130.356c-1.227,1.632-4.794,5.814-10.71,12.546
			c-5.916,6.732-14.28,14.688-25.092,23.868c-10.813,9.18-24.378,18.972-40.698,29.376c-16.32,10.404-35.7,20.094-58.143,29.07
			c2.856,5.712,5.61,11.526,8.265,17.442c2.649,5.916,5.202,11.73,7.647,17.442c0.816,2.04,1.734,4.08,2.754,6.12
			c1.021,2.04,1.938,4.08,2.757,6.12c19.989-2.448,39.573-3.468,58.752-3.06c19.176,0.408,36.516,1.326,52.02,2.754
			s28.356,3.06,38.556,4.896s16.32,2.958,18.36,3.366c-0.408-28.56-5.304-55.488-14.688-80.784S485.928,151.164,468.792,130.356z"/>
	</g>
</g>
<g>
</g>
<g>
</g>
<g>
</g>
<g>
</g>
<g>
</g>
<g>
</g>
<g>
</g>
<g>
</g>
<g>
</g>
<g>
</g>
<g>
</g>
<g>
</g>
<g>
</g>
<g>
</g>
<g>
</g>
</svg>
